<mxfile host="Electron" modified="2024-07-19T08:12:25.582Z" agent="Mozilla/5.0 (Windows NT 10.0; Win64; x64) AppleWebKit/537.36 (KHTML, like Gecko) draw.io/24.6.4 Chrome/124.0.6367.207 Electron/30.0.6 Safari/537.36" etag="q9BNtsblkZEQVPENScnJ" version="24.6.4" type="device">
  <diagram id="C5RBs43oDa-KdzZeNtuy" name="Page-1">
    <mxGraphModel dx="4522" dy="2841" grid="1" gridSize="10" guides="1" tooltips="1" connect="1" arrows="1" fold="1" page="1" pageScale="1" pageWidth="827" pageHeight="1169" math="0" shadow="0">
      <root>
        <mxCell id="WIyWlLk6GJQsqaUBKTNV-0" />
        <mxCell id="WIyWlLk6GJQsqaUBKTNV-1" parent="WIyWlLk6GJQsqaUBKTNV-0" />
        <mxCell id="RqxgLBqw01Iu66486SGN-4" value="" style="strokeWidth=2;html=1;shape=mxgraph.flowchart.loop_limit;whiteSpace=wrap;fillColor=#f5f5f5;strokeColor=#666666;fontColor=#333333;" vertex="1" parent="WIyWlLk6GJQsqaUBKTNV-1">
          <mxGeometry x="-950" y="-380" width="2780" height="1460" as="geometry" />
        </mxCell>
        <mxCell id="MhL-LQydLGjMUUDl20l_-155" value="" style="strokeWidth=2;html=1;shape=mxgraph.flowchart.loop_limit;whiteSpace=wrap;fillColor=#e1d5e7;strokeColor=#9673a6;" parent="WIyWlLk6GJQsqaUBKTNV-1" vertex="1">
          <mxGeometry x="240" y="300" width="1490" height="590" as="geometry" />
        </mxCell>
        <mxCell id="MhL-LQydLGjMUUDl20l_-154" value="" style="strokeWidth=2;html=1;shape=mxgraph.flowchart.loop_limit;whiteSpace=wrap;fillColor=#f8cecc;strokeColor=#b85450;" parent="WIyWlLk6GJQsqaUBKTNV-1" vertex="1">
          <mxGeometry x="970" y="340" width="640" height="500" as="geometry" />
        </mxCell>
        <mxCell id="MhL-LQydLGjMUUDl20l_-135" value="" style="strokeWidth=2;html=1;shape=mxgraph.flowchart.loop_limit;whiteSpace=wrap;fillColor=#dae8fc;strokeColor=#6c8ebf;" parent="WIyWlLk6GJQsqaUBKTNV-1" vertex="1">
          <mxGeometry x="450" y="340" width="490" height="500" as="geometry" />
        </mxCell>
        <mxCell id="MhL-LQydLGjMUUDl20l_-101" value="" style="strokeWidth=2;html=1;shape=mxgraph.flowchart.loop_limit;whiteSpace=wrap;fillColor=#d5e8d4;strokeColor=#82b366;" parent="WIyWlLk6GJQsqaUBKTNV-1" vertex="1">
          <mxGeometry x="520" y="-160" width="300" height="400" as="geometry" />
        </mxCell>
        <mxCell id="MhL-LQydLGjMUUDl20l_-95" value="" style="strokeWidth=2;html=1;shape=mxgraph.flowchart.loop_limit;whiteSpace=wrap;fillColor=#fff2cc;strokeColor=#d6b656;" parent="WIyWlLk6GJQsqaUBKTNV-1" vertex="1">
          <mxGeometry x="-620" y="-270" width="1100" height="590" as="geometry" />
        </mxCell>
        <mxCell id="MhL-LQydLGjMUUDl20l_-2" value="" style="shape=image;verticalLabelPosition=bottom;labelBackgroundColor=#ffffff;verticalAlign=top;aspect=fixed;imageAspect=0;image=data:image/svg+xml,PHN2ZyB4bWxuczpjYz0iaHR0cDovL2NyZWF0aXZlY29tbW9ucy5vcmcvbnMjIiB4bWxuczpkYz0iaHR0cDovL3B1cmwub3JnL2RjL2VsZW1lbnRzLzEuMS8iIHhtbG5zOmlua3NjYXBlPSJodHRwOi8vd3d3Lmlua3NjYXBlLm9yZy9uYW1lc3BhY2VzL2lua3NjYXBlIiB4bWxuczpyZGY9Imh0dHA6Ly93d3cudzMub3JnLzE5OTkvMDIvMjItcmRmLXN5bnRheC1ucyMiIHhtbG5zOnNvZGlwb2RpPSJodHRwOi8vc29kaXBvZGkuc291cmNlZm9yZ2UubmV0L0RURC9zb2RpcG9kaS0wLmR0ZCIgeG1sbnM6c3ZnPSJodHRwOi8vd3d3LnczLm9yZy8yMDAwL3N2ZyIgeG1sbnM9Imh0dHA6Ly93d3cudzMub3JnLzIwMDAvc3ZnIiB4bWxuczp4bGluaz0iaHR0cDovL3d3dy53My5vcmcvMTk5OS94bGluayIgdmVyc2lvbj0iMS4xIiBpZD0ic3ZnMTQyMzE5IiBpbmtzY2FwZTp2ZXJzaW9uPSIwLjkyLjMgKDI0MDU1NDYsIDIwMTgtMDMtMTEpIiBzb2RpcG9kaTpkb2NuYW1lPSJjc2hhcnBfMi5zdmciIHg9IjBweCIgeT0iMHB4IiB2aWV3Qm94PSIwIDAgOTcuNzIgNzEuNTUiIHN0eWxlPSJlbmFibGUtYmFja2dyb3VuZDpuZXcgMCAwIDk3LjcyIDcxLjU1OyIgeG1sOnNwYWNlPSJwcmVzZXJ2ZSI+JiN4YTs8c29kaXBvZGk6bmFtZWR2aWV3IGJvcmRlcmNvbG9yPSIjNjY2NjY2IiBib3JkZXJvcGFjaXR5PSIxIiBmaXQtbWFyZ2luLWJvdHRvbT0iMCIgZml0LW1hcmdpbi1sZWZ0PSIwIiBmaXQtbWFyZ2luLXJpZ2h0PSIwIiBmaXQtbWFyZ2luLXRvcD0iMCIgZ3JpZHRvbGVyYW5jZT0iMTAiIGd1aWRldG9sZXJhbmNlPSIxMCIgaWQ9Im5hbWVkdmlldzE0MjMyMSIgaW5rc2NhcGU6Y3VycmVudC1sYXllcj0ic3ZnMTQyMzE5IiBpbmtzY2FwZTpjeD0iNjUuMTQzMTk4IiBpbmtzY2FwZTpjeT0iNDcuNjk5NzE3IiBpbmtzY2FwZTpwYWdlb3BhY2l0eT0iMCIgaW5rc2NhcGU6cGFnZXNoYWRvdz0iMiIgaW5rc2NhcGU6d2luZG93LWhlaWdodD0iMTAxNyIgaW5rc2NhcGU6d2luZG93LW1heGltaXplZD0iMSIgaW5rc2NhcGU6d2luZG93LXdpZHRoPSIxOTIwIiBpbmtzY2FwZTp3aW5kb3cteD0iLTgiIGlua3NjYXBlOndpbmRvdy15PSItOCIgaW5rc2NhcGU6em9vbT0iOS4wODgwMzIiIG9iamVjdHRvbGVyYW5jZT0iMTAiIHBhZ2Vjb2xvcj0iI2ZmZmZmZiIgc2hvd2dyaWQ9ImZhbHNlIj4mI3hhOwk8L3NvZGlwb2RpOm5hbWVkdmlldz4mI3hhOzxnIGlkPSJnMTQyMzE3IiB0cmFuc2Zvcm09InRyYW5zbGF0ZSgwLC04LjQwNzE0NjllLTUpIj4mI3hhOwk8dGl0bGUgaWQ9InRpdGxlMTQyMjg0Ij5QYWdlLTE8L3RpdGxlPiYjeGE7CTxnIGlkPSJncm91cDk4NS0xIj4mI3hhOwkJPHRpdGxlIGlkPSJ0aXRsZTE0MjI4NiI+Q1NoYXJwPC90aXRsZT4mI3hhOwkJPGcgaWQ9InNoYXBlOTg2LTIiPiYjeGE7CQkJPHRpdGxlIGlkPSJ0aXRsZTE0MjI4OCI+U2hlZXQuOTg2PC90aXRsZT4mI3hhOwkJCTxwYXRoIGlkPSJwYXRoMTQyMjkwIiBpbmtzY2FwZTpjb25uZWN0b3ItY3VydmF0dXJlPSIwIiBzdHlsZT0iZmlsbDojM0Y1NzY1OyIgZD0iTTkzLjk5LDBDMy42MSwwLDMuNjEsMCwzLjYxLDAgICAgIEMwLjYsMCwwLDAuNzIsMCwzLjcyYzAsNjQuMjMsMCw2NC4yMywwLDY0LjIzYzAsMywwLjYsMy42LDMuNjEsMy42YzkwLjM4LDAsOTAuMzgsMCw5MC4zOCwwYzMuMTIsMCwzLjczLTAuNiwzLjczLTMuNiAgICAgYzAtNjQuMjMsMC02NC4yMywwLTY0LjIzQzk3LjcyLDAuNzIsOTcuMTEsMCw5My45OSwweiIvPiYjeGE7CQk8L2c+JiN4YTsJCTxnIGlkPSJzaGFwZTk4Ny00IiB0cmFuc2Zvcm09InRyYW5zbGF0ZSg5MC45NjUxLC02Ni4yNDc4KSI+JiN4YTsJCQk8dGl0bGUgaWQ9InRpdGxlMTQyMjkzIj5TaGVldC45ODc8L3RpdGxlPiYjeGE7CQkJPHBhdGggaWQ9InBhdGgxNDIyOTUiIGlua3NjYXBlOmNvbm5lY3Rvci1jdXJ2YXR1cmU9IjAiIHN0eWxlPSJmaWxsOiNGRjAwMDA7IiBkPSJNNC4xMyw2OS41MWMwLDEuMTctMC45MiwyLjA0LTIuMDQsMi4wNCAgICAgUzAsNzAuNjgsMCw2OS41MWMwLTEuMTIsMC45Ny0yLjAzLDIuMDktMi4wM1M0LjEzLDY4LjM5LDQuMTMsNjkuNTF6Ii8+JiN4YTsJCTwvZz4mI3hhOwkJPGcgaWQ9InNoYXBlOTg4LTYiIHRyYW5zZm9ybT0idHJhbnNsYXRlKDIuMDk1MTksLTMuMzA2MjMpIj4mI3hhOwkJCTx0aXRsZSBpZD0idGl0bGUxNDIyOTgiPlNoZWV0Ljk4ODwvdGl0bGU+JiN4YTsJCQk8cGF0aCBpZD0icGF0aDE0MjMwMCIgaW5rc2NhcGU6Y29ubmVjdG9yLWN1cnZhdHVyZT0iMCIgc3R5bGU9ImZpbGw6IzAwQjBGMDsiIGQ9Ik0wLDEyLjQxdjU5LjE0aDkzLjA0VjEyLjQxSDB6Ii8+JiN4YTsJCTwvZz4mI3hhOwkJPGcgaWQ9Imdyb3VwOTg5LTgiIHRyYW5zZm9ybT0idHJhbnNsYXRlKDI2LjExNjcsLTE2LjMyNTcpIj4mI3hhOwkJCTx0aXRsZSBpZD0idGl0bGUxNDIzMDMiPlNoZWV0Ljk4OTwvdGl0bGU+JiN4YTsJCQk8ZyBpZD0ic2hhcGU5OTAtOSI+JiN4YTsJCQkJPHRpdGxlIGlkPSJ0aXRsZTE0MjMwNSI+U2hlZXQuOTkwPC90aXRsZT4mI3hhOwkJCQk8cGF0aCBpZD0icGF0aDE0MjMwNyIgaW5rc2NhcGU6Y29ubmVjdG9yLWN1cnZhdHVyZT0iMCIgc3R5bGU9ImZpbGw6I0ZGRkZGRjsiIGQ9Ik0yNC40Myw2OS43NmMtMi4zNiwxLjIyLTUuMzYsMS43OS05LDEuNzkgICAgICBjLTQuNzIsMC04LjM2LTEuNDMtMTEuMjItNC4zQzEuNSw2NC4yNCwwLDYwLjQ0LDAsNTUuNjRjMC01LjE1LDEuNTctOS4zMSw0LjcxLTEyLjQ2YzMuMTUtMy4yMyw3LjA4LTQuNzMsMTEuODYtNC43MyAgICAgIGMzLjA3LDAsNS43MiwwLjQzLDcuNjQsMS4zNnY1LjNjLTIuMTQtMS4yOS00LjU3LTEuOTMtNy4yMS0xLjkzYy0zLjQzLDAtNi4yOSwxLjE0LTguNDMsMy4yOXMtMy4yMSw1LjE2LTMuMjEsOC45NiAgICAgIGMwLDMuNTEsMS4wNyw2LjMsMyw4LjQ1YzIuMDcsMi4wOCw0LjY0LDMuMDgsNy44NSwzLjA4YzMsMCw1LjY1LTAuNjQsNy45My0yLjE0djQuOTRIMjQuNDN6Ii8+JiN4YTsJCQk8L2c+JiN4YTsJCQk8ZyBpZD0ic2hhcGU5OTEtMTEiIHRyYW5zZm9ybT0idHJhbnNsYXRlKDI3LjA3MTQsLTYuODc4MjkpIj4mI3hhOwkJCQk8dGl0bGUgaWQ9InRpdGxlMTQyMzEwIj5TaGVldC45OTE8L3RpdGxlPiYjeGE7CQkJCTxwYXRoIGlkPSJwYXRoMTQyMzEyIiBpbmtzY2FwZTpjb25uZWN0b3ItY3VydmF0dXJlPSIwIiBzdHlsZT0iZmlsbDojRkZGRkZGOyIgZD0iTTE3LjUsNTguOTRsMC40My0yLjI5aC0zLjVsMS4xNC01LjczaC0yLjUgICAgICBsLTEuMTQsNS43M2gtNGwxLjE0LTUuNzNINi41bC0xLjE0LDUuNzNIMS42NGwtMC41LDIuMjloMy43OUw0LDYzLjUzSDAuNUwwLDY1LjgyaDMuNTdsLTEuMTQsNS43M2gyLjVsMS4xNC01LjczaDRsLTEuMTQsNS43MyAgICAgIGgyLjVsMS4xNC01LjczaDMuNzlsMC41Ny0yLjI5aC0zLjc5bDAuOTMtNC41OUgxNy41eiBNMTAuNSw2My41M2gtNGwwLjkzLTQuNTloNEwxMC41LDYzLjUzeiIvPiYjeGE7CQkJPC9nPiYjeGE7CQk8L2c+JiN4YTsJPC9nPiYjeGE7PC9nPiYjeGE7PC9zdmc+;" parent="WIyWlLk6GJQsqaUBKTNV-1" vertex="1">
          <mxGeometry x="-950" y="-720" width="68.05" height="50" as="geometry" />
        </mxCell>
        <mxCell id="MhL-LQydLGjMUUDl20l_-3" value="" style="shape=image;verticalLabelPosition=bottom;labelBackgroundColor=#ffffff;verticalAlign=top;aspect=fixed;imageAspect=0;image=data:image/svg+xml,PHN2ZyB4bWxuczpjYz0iaHR0cDovL2NyZWF0aXZlY29tbW9ucy5vcmcvbnMjIiB4bWxuczpkYz0iaHR0cDovL3B1cmwub3JnL2RjL2VsZW1lbnRzLzEuMS8iIHhtbG5zOmlua3NjYXBlPSJodHRwOi8vd3d3Lmlua3NjYXBlLm9yZy9uYW1lc3BhY2VzL2lua3NjYXBlIiB4bWxuczpyZGY9Imh0dHA6Ly93d3cudzMub3JnLzE5OTkvMDIvMjItcmRmLXN5bnRheC1ucyMiIHhtbG5zOnNvZGlwb2RpPSJodHRwOi8vc29kaXBvZGkuc291cmNlZm9yZ2UubmV0L0RURC9zb2RpcG9kaS0wLmR0ZCIgeG1sbnM6c3ZnPSJodHRwOi8vd3d3LnczLm9yZy8yMDAwL3N2ZyIgeG1sbnM9Imh0dHA6Ly93d3cudzMub3JnLzIwMDAvc3ZnIiB4bWxuczp4bGluaz0iaHR0cDovL3d3dy53My5vcmcvMTk5OS94bGluayIgdmVyc2lvbj0iMS4xIiBpZD0ic3ZnMjA4Nzk5IiBpbmtzY2FwZTp2ZXJzaW9uPSIwLjkyLjMgKDI0MDU1NDYsIDIwMTgtMDMtMTEpIiBzb2RpcG9kaTpkb2NuYW1lPSJzb3VyY2VfY29udHJvbC5zdmciIHg9IjBweCIgeT0iMHB4IiB2aWV3Qm94PSIwIDAgMzAuNzYgMzAuNzYiIHN0eWxlPSJlbmFibGUtYmFja2dyb3VuZDpuZXcgMCAwIDMwLjc2IDMwLjc2OyIgeG1sOnNwYWNlPSJwcmVzZXJ2ZSI+JiN4YTs8c29kaXBvZGk6bmFtZWR2aWV3IGJvcmRlcmNvbG9yPSIjNjY2NjY2IiBib3JkZXJvcGFjaXR5PSIxIiBmaXQtbWFyZ2luLWJvdHRvbT0iMCIgZml0LW1hcmdpbi1sZWZ0PSIwIiBmaXQtbWFyZ2luLXJpZ2h0PSIwIiBmaXQtbWFyZ2luLXRvcD0iMCIgZ3JpZHRvbGVyYW5jZT0iMTAiIGd1aWRldG9sZXJhbmNlPSIxMCIgaWQ9Im5hbWVkdmlldzIwODgwMSIgaW5rc2NhcGU6Y3VycmVudC1sYXllcj0ic3ZnMjA4Nzk5IiBpbmtzY2FwZTpjeD0iMjAuNTExMjM3IiBpbmtzY2FwZTpjeT0iMjAuNTEwNzcxIiBpbmtzY2FwZTpwYWdlb3BhY2l0eT0iMCIgaW5rc2NhcGU6cGFnZXNoYWRvdz0iMiIgaW5rc2NhcGU6d2luZG93LWhlaWdodD0iMTAxNyIgaW5rc2NhcGU6d2luZG93LW1heGltaXplZD0iMSIgaW5rc2NhcGU6d2luZG93LXdpZHRoPSIxOTIwIiBpbmtzY2FwZTp3aW5kb3cteD0iLTgiIGlua3NjYXBlOndpbmRvdy15PSItOCIgaW5rc2NhcGU6em9vbT0iMjEuMTU0MDg1IiBvYmplY3R0b2xlcmFuY2U9IjEwIiBwYWdlY29sb3I9IiNmZmZmZmYiIHNob3dncmlkPSJmYWxzZSI+JiN4YTsJPC9zb2RpcG9kaTpuYW1lZHZpZXc+JiN4YTs8ZyBpZD0iZzIwODc5NyIgdHJhbnNmb3JtPSJ0cmFuc2xhdGUoMC4wMDI1LDAuMDEyNSkiPiYjeGE7CTx0aXRsZSBpZD0idGl0bGUyMDg3OTAiPlBhZ2UtMTwvdGl0bGU+JiN4YTsJPGcgaWQ9InNoYXBlNzkwLTEiPiYjeGE7CQk8dGl0bGUgaWQ9InRpdGxlMjA4NzkyIj5Tb3VyY2UgQ29udHJvbDwvdGl0bGU+JiN4YTsJCTxwYXRoIGlkPSJwYXRoMjA4Nzk0IiBpbmtzY2FwZTpjb25uZWN0b3ItY3VydmF0dXJlPSIwIiBzdHlsZT0iZmlsbDojRjAzQzJFOyIgZD0iTTMwLjE3LDE0TDE2Ljc1LDAuNTggICAgYy0wLjc3LTAuNzktMi4wMy0wLjc5LTIuOCwwbC0yLjc5LDIuNzdMMTQuNyw2LjlsMCwwYzAuODEtMC4yOSwxLjc2LTAuMDgsMi40MSwwLjU2YzAuNjcsMC42NywwLjg1LDEuNiwwLjU3LDIuNDNsMy40LDMuNDIgICAgYzAuODMtMC4yOCwxLjc4LTAuMSwyLjQ1LDAuNTVjMC45MSwwLjkzLDAuOTEsMi40MSwwLDMuMzRjLTAuOTMsMC45MS0yLjQzLDAuOTEtMy4zNCwwYy0wLjY5LTAuNjktMC44Ny0xLjcyLTAuNTEtMi41NyAgICBsLTMuMTgtMy4xOGwtMC4wMiw4LjM2bDAsMGMwLjI1LDAuMTIsMC40NSwwLjI3LDAuNjMsMC40NWMwLjkzLDAuOTMsMC45MywyLjQzLDAsMy4zNGMtMC45MSwwLjkxLTIuNDEsMC45MS0zLjMyLDAgICAgYy0wLjkzLTAuOTEtMC45My0yLjQxLDAtMy4zNGMwLjIyLTAuMjIsMC40OS0wLjM5LDAuNzctMC41MXYtOC40NGMtMC4yOC0wLjEyLTAuNTUtMC4zLTAuNzctMC41MWMtMC43MS0wLjctMC44Ny0xLjcyLTAuNS0yLjU5ICAgIEw5Ljc4LDQuNzNsLTkuMTksOS4yMWwwLDBjLTAuNzksMC43Ny0wLjc5LDIuMDMsMCwyLjhsMTMuNDIsMTMuNDJjMC43NywwLjc5LDIuMDMsMC43OSwyLjgsMEwzMC4xNywxNi44ICAgIEMzMC45NiwxNi4wMywzMC45NiwxNC43NywzMC4xNywxNHoiLz4mI3hhOwk8L2c+JiN4YTs8L2c+JiN4YTs8L3N2Zz4=;" parent="WIyWlLk6GJQsqaUBKTNV-1" vertex="1">
          <mxGeometry x="-860.25" y="-717.5" width="50.5" height="50.5" as="geometry" />
        </mxCell>
        <mxCell id="MhL-LQydLGjMUUDl20l_-5" value="" style="shape=image;verticalLabelPosition=bottom;labelBackgroundColor=#ffffff;verticalAlign=top;aspect=fixed;imageAspect=0;image=data:image/svg+xml,PHN2ZyB4bWxuczpjYz0iaHR0cDovL2NyZWF0aXZlY29tbW9ucy5vcmcvbnMjIiB4bWxuczpkYz0iaHR0cDovL3B1cmwub3JnL2RjL2VsZW1lbnRzLzEuMS8iIHhtbG5zOmlua3NjYXBlPSJodHRwOi8vd3d3Lmlua3NjYXBlLm9yZy9uYW1lc3BhY2VzL2lua3NjYXBlIiB4bWxuczpyZGY9Imh0dHA6Ly93d3cudzMub3JnLzE5OTkvMDIvMjItcmRmLXN5bnRheC1ucyMiIHhtbG5zOnNvZGlwb2RpPSJodHRwOi8vc29kaXBvZGkuc291cmNlZm9yZ2UubmV0L0RURC9zb2RpcG9kaS0wLmR0ZCIgeG1sbnM6c3ZnPSJodHRwOi8vd3d3LnczLm9yZy8yMDAwL3N2ZyIgeG1sbnM9Imh0dHA6Ly93d3cudzMub3JnLzIwMDAvc3ZnIiB4bWxuczp4bGluaz0iaHR0cDovL3d3dy53My5vcmcvMTk5OS94bGluayIgdmVyc2lvbj0iMS4xIiBpZD0ic3ZnMjE2NDc1IiBpbmtzY2FwZTp2ZXJzaW9uPSIwLjkyLjMgKDI0MDU1NDYsIDIwMTgtMDMtMTEpIiBzb2RpcG9kaTpkb2NuYW1lPSJ2aXN1YWxfc3R1ZGlvX2xldHRlcmluZy5zdmciIHg9IjBweCIgeT0iMHB4IiB2aWV3Qm94PSIwIDAgMjkwLjA3IDUxLjI0IiBzdHlsZT0iZW5hYmxlLWJhY2tncm91bmQ6bmV3IDAgMCAyOTAuMDcgNTEuMjQ7IiB4bWw6c3BhY2U9InByZXNlcnZlIj4mI3hhOzxzb2RpcG9kaTpuYW1lZHZpZXcgYm9yZGVyY29sb3I9IiM2NjY2NjYiIGJvcmRlcm9wYWNpdHk9IjEiIGZpdC1tYXJnaW4tYm90dG9tPSIwIiBmaXQtbWFyZ2luLWxlZnQ9IjAiIGZpdC1tYXJnaW4tcmlnaHQ9IjAiIGZpdC1tYXJnaW4tdG9wPSIwIiBncmlkdG9sZXJhbmNlPSIxMCIgZ3VpZGV0b2xlcmFuY2U9IjEwIiBpZD0ibmFtZWR2aWV3MjE2NDc3IiBpbmtzY2FwZTpjdXJyZW50LWxheWVyPSJzdmcyMTY0NzUiIGlua3NjYXBlOmN4PSIxOTMuMzc2OTEiIGlua3NjYXBlOmN5PSIzNC4xNjI2NDgiIGlua3NjYXBlOnBhZ2VvcGFjaXR5PSIwIiBpbmtzY2FwZTpwYWdlc2hhZG93PSIyIiBpbmtzY2FwZTp3aW5kb3ctaGVpZ2h0PSIxMDE3IiBpbmtzY2FwZTp3aW5kb3ctbWF4aW1pemVkPSIxIiBpbmtzY2FwZTp3aW5kb3ctd2lkdGg9IjE5MjAiIGlua3NjYXBlOndpbmRvdy14PSItOCIgaW5rc2NhcGU6d2luZG93LXk9Ii04IiBpbmtzY2FwZTp6b29tPSI0LjQ1ODgyNzIiIG9iamVjdHRvbGVyYW5jZT0iMTAiIHBhZ2Vjb2xvcj0iI2ZmZmZmZiIgc2hvd2dyaWQ9ImZhbHNlIj4mI3hhOwk8L3NvZGlwb2RpOm5hbWVkdmlldz4mI3hhOzxnIGlkPSJnMjE2NDczIiB0cmFuc2Zvcm09InRyYW5zbGF0ZSgtNC44Mzg1NiwtNC44NDE0NCkiPiYjeGE7CTx0aXRsZSBpZD0idGl0bGUyMTY0MDMiPlBhZ2UtMTwvdGl0bGU+JiN4YTsJPGcgaWQ9Imdyb3VwMzIxLTEiIHRyYW5zZm9ybT0idHJhbnNsYXRlKDQuODM4NTYsLTQuODM4NTYpIj4mI3hhOwkJPHRpdGxlIGlkPSJ0aXRsZTIxNjQwNSI+VmlzdWFsIFN0dWRpbyAoTGV0dGVyaW5nKTwvdGl0bGU+JiN4YTsJCTxnIGlkPSJzaGFwZTMyMi0yIiB0cmFuc2Zvcm09InRyYW5zbGF0ZSg2Ni42OTc4LC0xMC4yNDc5KSI+JiN4YTsJCQk8dGl0bGUgaWQ9InRpdGxlMjE2NDA3Ij5TaGVldC4zMjI8L3RpdGxlPiYjeGE7CQkJPHBhdGggaWQ9InBhdGgyMTY0MDkiIGlua3NjYXBlOmNvbm5lY3Rvci1jdXJ2YXR1cmU9IjAiIHN0eWxlPSJmaWxsOiM2NjJGOEY7IiBkPSJNMjYuNDcsMzAuMkwxNS4xMSw2MC45MmgtMy45NUwwLDMwLjJoNC4wMSAgICAgbDguNSwyNC4zNWMwLjI5LDAuODYsMC40OSwxLjc3LDAuNjIsMi43M2gwLjA5YzAuMDctMC43LDAuMzEtMS42MiwwLjcxLTIuNzdMMjIuNiwzMC4ySDI2LjQ3eiIvPiYjeGE7CQk8L2c+JiN4YTsJCTxnIGlkPSJzaGFwZTMyMy00IiB0cmFuc2Zvcm09InRyYW5zbGF0ZSgxMDMuODgzLC05LjcwOTA1KSI+JiN4YTsJCQk8dGl0bGUgaWQ9InRpdGxlMjE2NDEyIj5TaGVldC4zMjM8L3RpdGxlPiYjeGE7CQkJPHBhdGggaWQ9InBhdGgyMTY0MTQiIGlua3NjYXBlOmNvbm5lY3Rvci1jdXJ2YXR1cmU9IjAiIHN0eWxlPSJmaWxsOiM2NjJGOEY7IiBkPSJNMTMuNDcsNTQuNTFjMCwxLjktMC43MywzLjQ1LTIuMTksNC42MyAgICAgYy0xLjQ3LDEuMTktMy40MSwxLjc4LTUuODQsMS43OGMtMi4wNywwLTMuODktMC40NC01LjQ0LTEuMzN2LTMuNzdjMS43MywxLjQsMy42MywyLjA5LDUuNywyLjA5YzIuNzgsMCw0LjE3LTEuMDEsNC4xNy0zLjA1ICAgICBjMC0wLjg0LTAuMjctMS41MS0wLjgxLTIuMDNjLTAuNTQtMC41Mi0xLjc4LTEuMjItMy43LTIuMTFDMy40MSw0OS44OSwyLjA0LDQ5LDEuMjQsNDguMDVzLTEuMi0yLjIxLTEuMi0zLjc4ICAgICBjMC0xLjgxLDAuNzMtMy4zMywyLjE4LTQuNTRjMS40Ni0xLjIxLDMuMzEtMS44Miw1LjU1LTEuODJjMS43MywwLDMuMjksMC4zNSw0LjcsMS4wM3YzLjUzYy0xLjQzLTEuMDQtMy4wOS0xLjU2LTQuOTctMS41NiAgICAgYy0xLjE2LDAtMi4wOSwwLjI4LTIuOCwwLjg2Yy0wLjcxLDAuNTctMS4wNiwxLjMtMS4wNiwyLjIxYzAsMC45NiwwLjI3LDEuNzEsMC44MSwyLjIzYzAuNTUsMC41MiwxLjY3LDEuMTQsMy4zNiwxLjg2ICAgICBjMi4wOSwwLjg4LDMuNTYsMS44MSw0LjQsMi43OEMxMy4wNSw1MS44MiwxMy40Nyw1My4wNCwxMy40Nyw1NC41MXoiLz4mI3hhOwkJPC9nPiYjeGE7CQk8ZyBpZD0ic2hhcGUzMjQtNiIgdHJhbnNmb3JtPSJ0cmFuc2xhdGUoMTIwLjYwMiwtOS43MDkwNSkiPiYjeGE7CQkJPHRpdGxlIGlkPSJ0aXRsZTIxNjQxNyI+U2hlZXQuMzI0PC90aXRsZT4mI3hhOwkJCTxwYXRoIGlkPSJwYXRoMjE2NDE5IiBpbmtzY2FwZTpjb25uZWN0b3ItY3VydmF0dXJlPSIwIiBzdHlsZT0iZmlsbDojNjYyRjhGOyIgZD0iTTE4LjIxLDYwLjM4aC0zLjUydi0zLjQ3aC0wLjA4ICAgICBjLTEuNDYsMi42Ny0zLjcxLDQuMDEtNi43NSw0LjAxQzIuNjIsNjAuOTIsMCw1Ny44LDAsNTEuNTZWMzguNDRoMy41MVY1MWMwLDQuNjEsMS43Nyw2LjkyLDUuMzEsNi45MmMxLjc0LDAsMy4xNi0wLjYzLDQuMjQtMS45ICAgICBjMS4wOS0xLjI2LDEuNjMtMi45LDEuNjMtNC45NFYzOC40NGgzLjUxdjIxLjk0TDE4LjIxLDYwLjM4eiIvPiYjeGE7CQk8L2c+JiN4YTsJCTxnIGlkPSJzaGFwZTMyNS04IiB0cmFuc2Zvcm09InRyYW5zbGF0ZSgxNDIuNTAyLC05LjcwOTA1KSI+JiN4YTsJCQk8dGl0bGUgaWQ9InRpdGxlMjE2NDIyIj5TaGVldC4zMjU8L3RpdGxlPiYjeGE7CQkJPHBhdGggaWQ9InBhdGgyMTY0MjQiIGlua3NjYXBlOmNvbm5lY3Rvci1jdXJ2YXR1cmU9IjAiIHN0eWxlPSJmaWxsOiM2NjJGOEY7IiBkPSJNMTcuMzMsNjAuMzhoLTMuNTF2LTMuNDNoLTAuMDkgICAgIGMtMS41MiwyLjY0LTMuNzcsMy45Ny02Ljc1LDMuOTdjLTIuMTEsMC0zLjgtMC41Ny01LjA3LTEuNzNDMC42NCw1OC4wNCwwLDU2LjUsMCw1NC41NmMwLTQuMDksMi40MS02LjQ3LDcuMjMtNy4xNmw2LjU5LTAuOTIgICAgIGMwLTMuNzItMS41MS01LjU3LTQuNTMtNS41N2MtMi42NCwwLTUuMDIsMC44OS03LjE1LDIuNjh2LTMuNmMwLjY0LTAuNDksMS43NS0wLjk1LDMuMy0xLjQxQzcsMzguMTMsOC4zOCwzNy45MSw5LjYsMzcuOTEgICAgIGM1LjE1LDAsNy43MywyLjczLDcuNzMsOC4yMVY2MC4zOHogTTEzLjgyLDQ5LjI4bC01LjMxLDAuNzZjLTEuODIsMC4yNi0zLjA5LDAuNjgtMy44MiwxLjI5Yy0wLjcyLDAuNjEtMS4wOSwxLjU5LTEuMDksMi45NSAgICAgYzAsMS4xLDAuMzksMS45OCwxLjE4LDIuNjVjMC43OSwwLjY1LDEuNzksMC45OSwzLjAzLDAuOTljMS43MywwLDMuMTctMC42Miw0LjMxLTEuODRjMS4xMy0xLjIzLDEuNy0yLjc3LDEuNy00LjYxTDEzLjgyLDQ5LjI4eiAgICAgIi8+JiN4YTsJCTwvZz4mI3hhOwkJPGcgaWQ9InNoYXBlMzI2LTEwIiB0cmFuc2Zvcm09InRyYW5zbGF0ZSgxNjUuMDQ2LC0xMC4yNDc5KSI+JiN4YTsJCQk8dGl0bGUgaWQ9InRpdGxlMjE2NDI3Ij5TaGVldC4zMjY8L3RpdGxlPiYjeGE7CQkJPHBhdGggaWQ9InBhdGgyMTY0MjkiIGlua3NjYXBlOmNvbm5lY3Rvci1jdXJ2YXR1cmU9IjAiIHN0eWxlPSJmaWxsOiM2NjJGOEY7IiBkPSJNMy41Miw2MC45MkgwVjI4LjQ0aDMuNTJWNjAuOTJ6Ii8+JiN4YTsJCTwvZz4mI3hhOwkJPGcgaWQ9InNoYXBlMzI3LTEyIiB0cmFuc2Zvcm09InRyYW5zbGF0ZSgxNzkuMjc2LC05LjcwOTA1KSI+JiN4YTsJCQk8dGl0bGUgaWQ9InRpdGxlMjE2NDMyIj5TaGVldC4zMjc8L3RpdGxlPiYjeGE7CQkJPHBhdGggaWQ9InBhdGgyMTY0MzQiIGlua3NjYXBlOmNvbm5lY3Rvci1jdXJ2YXR1cmU9IjAiIHN0eWxlPSJmaWxsOiM2NjJGOEY7IiBkPSJNMTcuMTEsNTIuNjNjMCwyLjU4LTAuOTEsNC42MS0yLjc0LDYuMDggICAgIGMtMS44MywxLjQ3LTQuMzEsMi4yMS03LjQ1LDIuMjFjLTEuMTQsMC0yLjQzLTAuMTktMy44Ny0wLjU3QzEuNjEsNTkuOTcsMC42LDU5LjU4LDAsNTkuMTZWNTQuOWMwLjg3LDAuNzksMi4wMSwxLjQ0LDMuNDMsMS45NyAgICAgYzEuNDIsMC41MiwyLjc1LDAuNzksMy45OCwwLjc5YzMuOTQsMCw1LjkxLTEuNTMsNS45MS00LjYxYzAtMS4yNy0wLjQyLTIuMzgtMS4yNi0zLjMxYy0wLjg1LTAuOTItMi41Ny0yLjEzLTUuMTktMy42MiAgICAgYy0yLjUyLTEuNDQtNC4yOS0yLjc5LTUuMzItNC4wOGMtMS0xLjI5LTEuNTItMi44NS0xLjUyLTQuNjljMC0yLjQzLDAuOTItNC40LDIuNzMtNS45MmMxLjgxLTEuNTIsNC4xNi0yLjI5LDcuMDMtMi4yOSAgICAgYzIuNzUsMCw0Ljc3LDAuMzcsNi4wNCwxLjF2NC4wMmMtMS42LTEuMjUtMy42OC0xLjg4LTYuMjQtMS44OGMtMS43LDAtMy4wOCwwLjQzLTQuMTYsMS4yOHMtMS42MiwxLjk3LTEuNjIsMy4zNyAgICAgYzAsMS4wMSwwLjE2LDEuODIsMC40OCwyLjQ0YzAuMzIsMC42MSwwLjg3LDEuMjIsMS42MywxLjgyczIuMDUsMS40MSwzLjg3LDIuNDNjMi43MSwxLjUxLDQuNjEsMi45Myw1LjcsNC4yOCAgICAgQzE2LjU3LDQ5LjM0LDE3LjExLDUwLjg4LDE3LjExLDUyLjYzeiIvPiYjeGE7CQk8L2c+JiN4YTsJCTxnIGlkPSJzaGFwZTMyOC0xNCIgdHJhbnNmb3JtPSJ0cmFuc2xhdGUoMTk3LjU3LC05Ljc1ODQ4KSI+JiN4YTsJCQk8dGl0bGUgaWQ9InRpdGxlMjE2NDM3Ij5TaGVldC4zMjg8L3RpdGxlPiYjeGE7CQkJPHBhdGggaWQ9InBhdGgyMTY0MzkiIGlua3NjYXBlOmNvbm5lY3Rvci1jdXJ2YXR1cmU9IjAiIHN0eWxlPSJmaWxsOiM2NjJGOEY7IiBkPSJNMTIuODEsNjAuMjFjLTAuODQsMC40OC0xLjk0LDAuNzEtMy4zLDAuNzEgICAgIGMtMy44MywwLTUuNzQtMi4xNS01Ljc0LTYuNDZWNDEuNDdIMHYtMi45OGgzLjc3di01LjM2TDcuMjgsMzJ2Ni40OWg1LjUzdjIuOThINy4yOHYxMi4zOGMwLDEuNDgsMC4yNSwyLjUyLDAuNzUsMy4xNCAgICAgczEuMzQsMC45MywyLjUxLDAuOTNjMC44NywwLDEuNjMtMC4yMywyLjI3LTAuNzFMMTIuODEsNjAuMjF6Ii8+JiN4YTsJCTwvZz4mI3hhOwkJPGcgaWQ9InNoYXBlMzI5LTE2IiB0cmFuc2Zvcm09InRyYW5zbGF0ZSgyMTMuMzkxLC05LjcwOTA1KSI+JiN4YTsJCQk8dGl0bGUgaWQ9InRpdGxlMjE2NDQyIj5TaGVldC4zMjk8L3RpdGxlPiYjeGE7CQkJPHBhdGggaWQ9InBhdGgyMTY0NDQiIGlua3NjYXBlOmNvbm5lY3Rvci1jdXJ2YXR1cmU9IjAiIHN0eWxlPSJmaWxsOiM2NjJGOEY7IiBkPSJNMTguMjEsNjAuMzhIMTQuN3YtMy40N2gtMC4wOSAgICAgYy0xLjQ1LDIuNjctMy43LDQuMDEtNi43NSw0LjAxQzIuNjIsNjAuOTIsMCw1Ny44LDAsNTEuNTZWMzguNDRoMy41MVY1MWMwLDQuNjEsMS43Nyw2LjkyLDUuMzIsNi45MmMxLjc0LDAsMy4xNS0wLjYzLDQuMjQtMS45ICAgICBjMS4wOC0xLjI2LDEuNjMtMi45LDEuNjMtNC45NFYzOC40NGgzLjUxVjYwLjM4eiIvPiYjeGE7CQk8L2c+JiN4YTsJCTxnIGlkPSJzaGFwZTMzMC0xOCIgdHJhbnNmb3JtPSJ0cmFuc2xhdGUoMjM1LjQyNSwtOS43MDkwNSkiPiYjeGE7CQkJPHRpdGxlIGlkPSJ0aXRsZTIxNjQ0NyI+U2hlZXQuMzMwPC90aXRsZT4mI3hhOwkJCTxwYXRoIGlkPSJwYXRoMjE2NDQ5IiBpbmtzY2FwZTpjb25uZWN0b3ItY3VydmF0dXJlPSIwIiBzdHlsZT0iZmlsbDojNjYyRjhGOyIgZD0iTTIwLjIzLDYwLjM4aC0zLjUydi0zLjczaC0wLjA4ICAgICBjLTEuNjMsMi44NS00LjE1LDQuMjctNy41NSw0LjI3Yy0yLjc3LDAtNC45OC0xLTYuNjItMi45OUMwLjgyLDU1Ljk0LDAsNTMuMjcsMCw0OS45NWMwLTMuNjMsMC45MS02LjU0LDIuNzMtOC43NCAgICAgczQuMjYtMy4zLDcuMzItMy4zYzMsMCw1LjE4LDEuMTksNi41OCwzLjU2aDAuMDhWMjcuOWgzLjUyTDIwLjIzLDYwLjM4eiBNMTYuNzEsNTAuNDZ2LTMuMjRjMC0xLjgxLTAuNi0zLjMxLTEuODEtNC41MSAgICAgYy0xLjIxLTEuMi0yLjY4LTEuOC00LjQxLTEuOGMtMi4xMSwwLTMuNzksMC43OC01LjAzLDIuMzRjLTEuMjUsMS41Ny0xLjg2LDMuNzQtMS44Niw2LjVjMCwyLjUyLDAuNTgsNC41MSwxLjc1LDUuOTcgICAgIGMxLjE3LDEuNDcsMi43NSwyLjE5LDQuNzMsMi4xOWMxLjkzLDAsMy41Mi0wLjY5LDQuNzYtMi4wOUMxNi4wOSw1NC40MiwxNi43MSw1Mi42MywxNi43MSw1MC40NnoiLz4mI3hhOwkJPC9nPiYjeGE7CQk8ZyBpZD0ic2hhcGUzMzEtMjAiIHRyYW5zZm9ybT0idHJhbnNsYXRlKDI2OC40NjcsLTkuNzA5MDUpIj4mI3hhOwkJCTx0aXRsZSBpZD0idGl0bGUyMTY0NTIiPlNoZWV0LjMzMTwvdGl0bGU+JiN4YTsJCQk8cGF0aCBpZD0icGF0aDIxNjQ1NCIgaW5rc2NhcGU6Y29ubmVjdG9yLWN1cnZhdHVyZT0iMCIgc3R5bGU9ImZpbGw6IzY2MkY4RjsiIGQ9Ik0yMS42LDQ5LjMzYzAsMy40OC0wLjk5LDYuMjktMi45Nyw4LjQxICAgICBzLTQuNjMsMy4xOC03Ljk2LDMuMThjLTMuMjQsMC01LjgzLTEuMDMtNy43Ny0zLjFDMC45Nyw1NS43NiwwLDUzLjA0LDAsNDkuNjdjMC0zLjYzLDAuOTktNi41LDIuOTgtOC42ICAgICBjMS45OC0yLjExLDQuNzItMy4xNiw4LjIxLTMuMTZjMy4yNSwwLDUuOCwxLjAyLDcuNjQsMy4wNUMyMC42Nyw0Mi45OSwyMS42LDQ1Ljc4LDIxLjYsNDkuMzN6IE0xOCw0OS40NiAgICAgYzAtMi43Ni0wLjYxLTQuODctMS44My02LjM0Yy0xLjIyLTEuNDgtMi45Ny0yLjIxLTUuMjQtMi4yMWMtMi4yNiwwLTQuMDQsMC43NS01LjM2LDIuMjZjLTEuMzEsMS41LTEuOTcsMy42My0xLjk3LDYuMzcgICAgIGMwLDIuNjMsMC42Nyw0LjY4LDEuOTgsNi4xNmMxLjMyLDEuNDgsMy4xMSwyLjIxLDUuMzUsMi4yMWMyLjI5LDAsNC4wNC0wLjcyLDUuMjUtMi4xOEMxNy4zOSw1NC4yNywxOCw1Mi4xOSwxOCw0OS40NnoiLz4mI3hhOwkJPC9nPiYjeGE7CQk8ZyBpZD0ic2hhcGUzMzItMjIiIHRyYW5zZm9ybT0idHJhbnNsYXRlKDk1LjU0ODEsLTEwLjIyNTYpIj4mI3hhOwkJCTx0aXRsZSBpZD0idGl0bGUyMTY0NTciPlNoZWV0LjMzMjwvdGl0bGU+JiN4YTsJCQk8cGF0aCBpZD0icGF0aDIxNjQ1OSIgaW5rc2NhcGU6Y29ubmVjdG9yLWN1cnZhdHVyZT0iMCIgc3R5bGU9ImZpbGw6IzY2MkY4RjsiIGQ9Ik00LjYxLDMxLjczYzAsMC42Ny0wLjIzLDEuMjEtMC42OSwxLjY0ICAgICBjLTAuNDUsMC40NC0xLDAuNjYtMS42MywwLjY2Yy0wLjY0LDAtMS4xOC0wLjIxLTEuNjMtMC42NEMwLjIyLDMyLjk4LDAsMzIuNDIsMCwzMS43M2MwLTAuNjEsMC4yMi0xLjE1LDAuNjUtMS41OSAgICAgYzAuNDQtMC40NiwwLjk5LTAuNjgsMS42NC0wLjY4YzAuNjYsMCwxLjIxLDAuMjIsMS42NSwwLjY2QzQuMzgsMzAuNTcsNC42MSwzMS4xMSw0LjYxLDMxLjczeiBNNC4wMSw2MC45MkgwLjQ5VjM4Ljk2aDMuNTIgICAgIFY2MC45MnoiLz4mI3hhOwkJPC9nPiYjeGE7CQk8ZyBpZD0ic2hhcGUzMzMtMjQiIHRyYW5zZm9ybT0idHJhbnNsYXRlKDI2MC40NTQsLTEwLjIyNTYpIj4mI3hhOwkJCTx0aXRsZSBpZD0idGl0bGUyMTY0NjIiPlNoZWV0LjMzMzwvdGl0bGU+JiN4YTsJCQk8cGF0aCBpZD0icGF0aDIxNjQ2NCIgaW5rc2NhcGU6Y29ubmVjdG9yLWN1cnZhdHVyZT0iMCIgc3R5bGU9ImZpbGw6IzY2MkY4RjsiIGQ9Ik00LjYxLDMxLjczYzAsMC42Ny0wLjIzLDEuMjEtMC42OCwxLjY0ICAgICBjLTAuNDYsMC40NC0xLDAuNjYtMS42MywwLjY2Yy0wLjY1LDAtMS4xOS0wLjIxLTEuNjQtMC42NEMwLjIyLDMyLjk4LDAsMzIuNDIsMCwzMS43M2MwLTAuNjEsMC4yMi0xLjE1LDAuNjYtMS41OSAgICAgYzAuNDMtMC40NiwwLjk4LTAuNjgsMS42NC0wLjY4czEuMjEsMC4yMiwxLjY0LDAuNjZDNC4zOSwzMC41Nyw0LjYxLDMxLjExLDQuNjEsMzEuNzN6IE00LjAxLDYwLjkySDAuNVYzOC45NmgzLjUxVjYwLjkyeiIvPiYjeGE7CQk8L2c+JiN4YTsJCTxnIGlkPSJzaGFwZTMzNC0yNiI+JiN4YTsJCQk8dGl0bGUgaWQ9InRpdGxlMjE2NDY3Ij5TaGVldC4zMzQ8L3RpdGxlPiYjeGE7CQkJPHBhdGggaWQ9InBhdGgyMTY0NjkiIGlua3NjYXBlOmNvbm5lY3Rvci1jdXJ2YXR1cmU9IjAiIHN0eWxlPSJmaWxsOiM2NjJGOEY7IiBkPSJNMzguNDQsOS42OEwxOC4xLDMwLjAxTDUuMTMsMTkuOTJMMCwyMi40OSAgICAgdjI1LjYybDUuMTMsMi41NkwxOC4xLDQwLjU4bDIwLjM0LDIwLjM0bDEyLjgxLTUuMTJ2LTQxTDM4LjQ0LDkuNjh6IE01LjEzLDQyLjk4VjI3LjYxbDcuNjgsNy42OUw1LjEzLDQyLjk4eiBNMjQuODksMzUuMyAgICAgbDEzLjU1LTEwLjU0djIxLjA3TDI0Ljg5LDM1LjN6Ii8+JiN4YTsJCTwvZz4mI3hhOwk8L2c+JiN4YTs8L2c+JiN4YTs8L3N2Zz4=;" parent="WIyWlLk6GJQsqaUBKTNV-1" vertex="1">
          <mxGeometry x="-790.25" y="-720" width="290" height="51" as="geometry" />
        </mxCell>
        <mxCell id="MhL-LQydLGjMUUDl20l_-34" value="" style="edgeStyle=orthogonalEdgeStyle;rounded=0;orthogonalLoop=1;jettySize=auto;html=1;entryX=1;entryY=0.5;entryDx=0;entryDy=0;" parent="WIyWlLk6GJQsqaUBKTNV-1" source="MhL-LQydLGjMUUDl20l_-9" target="MhL-LQydLGjMUUDl20l_-45" edge="1">
          <mxGeometry relative="1" as="geometry">
            <mxPoint x="280" y="150" as="targetPoint" />
            <Array as="points">
              <mxPoint x="310" y="150" />
              <mxPoint x="310" y="150" />
            </Array>
          </mxGeometry>
        </mxCell>
        <mxCell id="MhL-LQydLGjMUUDl20l_-41" value="YES" style="edgeLabel;html=1;align=center;verticalAlign=middle;resizable=0;points=[];" parent="MhL-LQydLGjMUUDl20l_-34" vertex="1" connectable="0">
          <mxGeometry x="-0.0342" y="-1" relative="1" as="geometry">
            <mxPoint x="19" y="-9" as="offset" />
          </mxGeometry>
        </mxCell>
        <mxCell id="MhL-LQydLGjMUUDl20l_-97" value="" style="edgeStyle=orthogonalEdgeStyle;rounded=0;orthogonalLoop=1;jettySize=auto;html=1;" parent="WIyWlLk6GJQsqaUBKTNV-1" source="MhL-LQydLGjMUUDl20l_-9" target="MhL-LQydLGjMUUDl20l_-96" edge="1">
          <mxGeometry relative="1" as="geometry" />
        </mxCell>
        <mxCell id="MhL-LQydLGjMUUDl20l_-9" value="Enter admin" style="rhombus;whiteSpace=wrap;html=1;" parent="WIyWlLk6GJQsqaUBKTNV-1" vertex="1">
          <mxGeometry x="374" y="110" width="80" height="80" as="geometry" />
        </mxCell>
        <mxCell id="RqxgLBqw01Iu66486SGN-2" style="edgeStyle=orthogonalEdgeStyle;rounded=0;orthogonalLoop=1;jettySize=auto;html=1;entryX=0.5;entryY=0;entryDx=0;entryDy=0;" edge="1" parent="WIyWlLk6GJQsqaUBKTNV-1" source="MhL-LQydLGjMUUDl20l_-39" target="RqxgLBqw01Iu66486SGN-1">
          <mxGeometry relative="1" as="geometry" />
        </mxCell>
        <mxCell id="MhL-LQydLGjMUUDl20l_-39" value="&lt;font style=&quot;font-size: 31px;&quot;&gt;Start&lt;/font&gt;" style="strokeWidth=2;html=1;shape=mxgraph.flowchart.start_1;whiteSpace=wrap;" parent="WIyWlLk6GJQsqaUBKTNV-1" vertex="1">
          <mxGeometry x="337" y="-629" width="153" height="90" as="geometry" />
        </mxCell>
        <mxCell id="MhL-LQydLGjMUUDl20l_-55" value="" style="edgeStyle=orthogonalEdgeStyle;rounded=0;orthogonalLoop=1;jettySize=auto;html=1;" parent="WIyWlLk6GJQsqaUBKTNV-1" source="MhL-LQydLGjMUUDl20l_-45" target="MhL-LQydLGjMUUDl20l_-54" edge="1">
          <mxGeometry relative="1" as="geometry" />
        </mxCell>
        <mxCell id="MhL-LQydLGjMUUDl20l_-45" value="&lt;span style=&quot;background-color: initial;&quot;&gt;Enter Password&lt;/span&gt;&lt;br&gt;&lt;span style=&quot;background-color: initial;&quot;&gt;[X] Leave&lt;/span&gt;" style="rounded=1;whiteSpace=wrap;html=1;absoluteArcSize=1;arcSize=14;strokeWidth=2;align=left;" parent="WIyWlLk6GJQsqaUBKTNV-1" vertex="1">
          <mxGeometry x="200" y="120" width="100" height="60" as="geometry" />
        </mxCell>
        <mxCell id="MhL-LQydLGjMUUDl20l_-51" style="edgeStyle=orthogonalEdgeStyle;rounded=0;orthogonalLoop=1;jettySize=auto;html=1;entryX=0.5;entryY=1;entryDx=0;entryDy=0;exitX=0.486;exitY=1.032;exitDx=0;exitDy=0;exitPerimeter=0;" parent="WIyWlLk6GJQsqaUBKTNV-1" source="MhL-LQydLGjMUUDl20l_-45" target="MhL-LQydLGjMUUDl20l_-9" edge="1">
          <mxGeometry relative="1" as="geometry">
            <mxPoint x="250" y="210" as="sourcePoint" />
            <Array as="points">
              <mxPoint x="250" y="182" />
              <mxPoint x="250" y="230" />
              <mxPoint x="414" y="230" />
            </Array>
          </mxGeometry>
        </mxCell>
        <mxCell id="MhL-LQydLGjMUUDl20l_-61" value="Leave" style="edgeLabel;html=1;align=center;verticalAlign=middle;resizable=0;points=[];" parent="MhL-LQydLGjMUUDl20l_-51" vertex="1" connectable="0">
          <mxGeometry x="0.0353" relative="1" as="geometry">
            <mxPoint as="offset" />
          </mxGeometry>
        </mxCell>
        <mxCell id="MhL-LQydLGjMUUDl20l_-57" value="" style="edgeStyle=orthogonalEdgeStyle;rounded=0;orthogonalLoop=1;jettySize=auto;html=1;exitX=0;exitY=0.5;exitDx=0;exitDy=0;entryX=1;entryY=0.5;entryDx=0;entryDy=0;entryPerimeter=0;" parent="WIyWlLk6GJQsqaUBKTNV-1" source="MhL-LQydLGjMUUDl20l_-54" target="MhL-LQydLGjMUUDl20l_-65" edge="1">
          <mxGeometry relative="1" as="geometry">
            <mxPoint x="-40" y="150" as="targetPoint" />
          </mxGeometry>
        </mxCell>
        <mxCell id="MhL-LQydLGjMUUDl20l_-58" value="Yes" style="edgeLabel;html=1;align=center;verticalAlign=middle;resizable=0;points=[];" parent="MhL-LQydLGjMUUDl20l_-57" vertex="1" connectable="0">
          <mxGeometry x="-0.0784" y="-3" relative="1" as="geometry">
            <mxPoint x="7" y="3" as="offset" />
          </mxGeometry>
        </mxCell>
        <mxCell id="MhL-LQydLGjMUUDl20l_-59" style="edgeStyle=orthogonalEdgeStyle;rounded=0;orthogonalLoop=1;jettySize=auto;html=1;entryX=0.5;entryY=0;entryDx=0;entryDy=0;" parent="WIyWlLk6GJQsqaUBKTNV-1" source="MhL-LQydLGjMUUDl20l_-54" target="MhL-LQydLGjMUUDl20l_-45" edge="1">
          <mxGeometry relative="1" as="geometry">
            <Array as="points">
              <mxPoint x="70" y="80" />
              <mxPoint x="250" y="80" />
            </Array>
          </mxGeometry>
        </mxCell>
        <mxCell id="MhL-LQydLGjMUUDl20l_-60" value="No" style="edgeLabel;html=1;align=center;verticalAlign=middle;resizable=0;points=[];" parent="MhL-LQydLGjMUUDl20l_-59" vertex="1" connectable="0">
          <mxGeometry x="-0.0605" y="-1" relative="1" as="geometry">
            <mxPoint as="offset" />
          </mxGeometry>
        </mxCell>
        <mxCell id="MhL-LQydLGjMUUDl20l_-54" value="Password correct" style="rhombus;whiteSpace=wrap;html=1;rounded=1;arcSize=14;strokeWidth=2;" parent="WIyWlLk6GJQsqaUBKTNV-1" vertex="1">
          <mxGeometry x="30" y="110" width="80" height="80" as="geometry" />
        </mxCell>
        <mxCell id="MhL-LQydLGjMUUDl20l_-62" style="edgeStyle=orthogonalEdgeStyle;rounded=0;orthogonalLoop=1;jettySize=auto;html=1;entryX=0.5;entryY=1;entryDx=0;entryDy=0;exitX=0.5;exitY=1;exitDx=0;exitDy=0;exitPerimeter=0;" parent="WIyWlLk6GJQsqaUBKTNV-1" source="MhL-LQydLGjMUUDl20l_-65" target="MhL-LQydLGjMUUDl20l_-9" edge="1">
          <mxGeometry relative="1" as="geometry">
            <mxPoint x="-100.00000000000045" y="180" as="sourcePoint" />
            <Array as="points">
              <mxPoint x="-100" y="250" />
              <mxPoint x="414" y="250" />
            </Array>
          </mxGeometry>
        </mxCell>
        <mxCell id="MhL-LQydLGjMUUDl20l_-63" value="Leave" style="edgeLabel;html=1;align=center;verticalAlign=middle;resizable=0;points=[];" parent="MhL-LQydLGjMUUDl20l_-62" vertex="1" connectable="0">
          <mxGeometry x="-0.0528" y="-4" relative="1" as="geometry">
            <mxPoint y="-4" as="offset" />
          </mxGeometry>
        </mxCell>
        <mxCell id="MhL-LQydLGjMUUDl20l_-67" value="" style="edgeStyle=orthogonalEdgeStyle;rounded=0;orthogonalLoop=1;jettySize=auto;html=1;" parent="WIyWlLk6GJQsqaUBKTNV-1" source="MhL-LQydLGjMUUDl20l_-65" target="MhL-LQydLGjMUUDl20l_-66" edge="1">
          <mxGeometry relative="1" as="geometry" />
        </mxCell>
        <mxCell id="MhL-LQydLGjMUUDl20l_-69" value="" style="edgeStyle=orthogonalEdgeStyle;rounded=0;orthogonalLoop=1;jettySize=auto;html=1;" parent="WIyWlLk6GJQsqaUBKTNV-1" source="MhL-LQydLGjMUUDl20l_-65" target="MhL-LQydLGjMUUDl20l_-68" edge="1">
          <mxGeometry relative="1" as="geometry" />
        </mxCell>
        <mxCell id="MhL-LQydLGjMUUDl20l_-65" value="&lt;font style=&quot;font-size: 7px;&quot;&gt;[T] Change All Products&lt;/font&gt;&lt;div style=&quot;font-size: 7px;&quot;&gt;&lt;font style=&quot;font-size: 7px;&quot;&gt;[I] Change one Product&lt;/font&gt;&lt;/div&gt;&lt;div style=&quot;font-size: 7px;&quot;&gt;&lt;font style=&quot;font-size: 7px;&quot;&gt;[X] Leave&lt;/font&gt;&lt;/div&gt;" style="strokeWidth=2;html=1;shape=mxgraph.flowchart.decision;whiteSpace=wrap;" parent="WIyWlLk6GJQsqaUBKTNV-1" vertex="1">
          <mxGeometry x="-150" y="100" width="100" height="100" as="geometry" />
        </mxCell>
        <mxCell id="MhL-LQydLGjMUUDl20l_-71" value="" style="edgeStyle=orthogonalEdgeStyle;rounded=0;orthogonalLoop=1;jettySize=auto;html=1;" parent="WIyWlLk6GJQsqaUBKTNV-1" source="MhL-LQydLGjMUUDl20l_-66" target="MhL-LQydLGjMUUDl20l_-70" edge="1">
          <mxGeometry relative="1" as="geometry" />
        </mxCell>
        <mxCell id="MhL-LQydLGjMUUDl20l_-66" value="Change ALL Products" style="whiteSpace=wrap;html=1;strokeWidth=2;" parent="WIyWlLk6GJQsqaUBKTNV-1" vertex="1">
          <mxGeometry x="-160" y="-20" width="120" height="60" as="geometry" />
        </mxCell>
        <mxCell id="MhL-LQydLGjMUUDl20l_-87" style="edgeStyle=orthogonalEdgeStyle;rounded=0;orthogonalLoop=1;jettySize=auto;html=1;entryX=1;entryY=0.5;entryDx=0;entryDy=0;" parent="WIyWlLk6GJQsqaUBKTNV-1" source="MhL-LQydLGjMUUDl20l_-68" target="MhL-LQydLGjMUUDl20l_-82" edge="1">
          <mxGeometry relative="1" as="geometry" />
        </mxCell>
        <mxCell id="MhL-LQydLGjMUUDl20l_-68" value="Change One Product" style="whiteSpace=wrap;html=1;strokeWidth=2;" parent="WIyWlLk6GJQsqaUBKTNV-1" vertex="1">
          <mxGeometry x="-320" y="120" width="120" height="60" as="geometry" />
        </mxCell>
        <mxCell id="MhL-LQydLGjMUUDl20l_-72" style="edgeStyle=orthogonalEdgeStyle;rounded=0;orthogonalLoop=1;jettySize=auto;html=1;entryX=1;entryY=0.5;entryDx=0;entryDy=0;exitX=1;exitY=0.5;exitDx=0;exitDy=0;" parent="WIyWlLk6GJQsqaUBKTNV-1" source="MhL-LQydLGjMUUDl20l_-70" target="MhL-LQydLGjMUUDl20l_-66" edge="1">
          <mxGeometry relative="1" as="geometry">
            <Array as="points">
              <mxPoint x="-20" y="-100" />
              <mxPoint x="-20" y="10" />
            </Array>
          </mxGeometry>
        </mxCell>
        <mxCell id="MhL-LQydLGjMUUDl20l_-73" value="YES" style="edgeLabel;html=1;align=center;verticalAlign=middle;resizable=0;points=[];" parent="MhL-LQydLGjMUUDl20l_-72" vertex="1" connectable="0">
          <mxGeometry x="0.0506" relative="1" as="geometry">
            <mxPoint as="offset" />
          </mxGeometry>
        </mxCell>
        <mxCell id="MhL-LQydLGjMUUDl20l_-77" value="" style="edgeStyle=orthogonalEdgeStyle;rounded=0;orthogonalLoop=1;jettySize=auto;html=1;entryX=0.5;entryY=0;entryDx=0;entryDy=0;exitX=0.5;exitY=0;exitDx=0;exitDy=0;" parent="WIyWlLk6GJQsqaUBKTNV-1" source="MhL-LQydLGjMUUDl20l_-70" target="MhL-LQydLGjMUUDl20l_-76" edge="1">
          <mxGeometry relative="1" as="geometry" />
        </mxCell>
        <mxCell id="MhL-LQydLGjMUUDl20l_-70" value="Enter Valid Data" style="rhombus;whiteSpace=wrap;html=1;strokeWidth=2;" parent="WIyWlLk6GJQsqaUBKTNV-1" vertex="1">
          <mxGeometry x="-140" y="-140.04" width="80" height="80" as="geometry" />
        </mxCell>
        <mxCell id="MhL-LQydLGjMUUDl20l_-78" style="edgeStyle=orthogonalEdgeStyle;rounded=0;orthogonalLoop=1;jettySize=auto;html=1;entryX=0;entryY=0.5;entryDx=0;entryDy=0;" parent="WIyWlLk6GJQsqaUBKTNV-1" source="MhL-LQydLGjMUUDl20l_-76" target="MhL-LQydLGjMUUDl20l_-70" edge="1">
          <mxGeometry relative="1" as="geometry" />
        </mxCell>
        <mxCell id="MhL-LQydLGjMUUDl20l_-76" value="error message" style="whiteSpace=wrap;html=1;strokeWidth=2;" parent="WIyWlLk6GJQsqaUBKTNV-1" vertex="1">
          <mxGeometry x="-260" y="-115.03999999999999" width="100" height="30" as="geometry" />
        </mxCell>
        <mxCell id="MhL-LQydLGjMUUDl20l_-79" style="edgeStyle=orthogonalEdgeStyle;rounded=0;orthogonalLoop=1;jettySize=auto;html=1;entryX=0.5;entryY=1;entryDx=0;entryDy=0;exitX=0.5;exitY=1;exitDx=0;exitDy=0;" parent="WIyWlLk6GJQsqaUBKTNV-1" source="MhL-LQydLGjMUUDl20l_-82" target="MhL-LQydLGjMUUDl20l_-68" edge="1">
          <mxGeometry relative="1" as="geometry">
            <mxPoint x="-379.75" y="260" as="targetPoint" />
            <Array as="points">
              <mxPoint x="-420" y="210" />
              <mxPoint x="-260" y="210" />
            </Array>
          </mxGeometry>
        </mxCell>
        <mxCell id="MhL-LQydLGjMUUDl20l_-80" value="YES" style="edgeLabel;html=1;align=center;verticalAlign=middle;resizable=0;points=[];" parent="MhL-LQydLGjMUUDl20l_-79" vertex="1" connectable="0">
          <mxGeometry x="0.0506" relative="1" as="geometry">
            <mxPoint as="offset" />
          </mxGeometry>
        </mxCell>
        <mxCell id="MhL-LQydLGjMUUDl20l_-81" value="" style="edgeStyle=orthogonalEdgeStyle;rounded=0;orthogonalLoop=1;jettySize=auto;html=1;entryX=0.5;entryY=0;entryDx=0;entryDy=0;exitX=0.5;exitY=0;exitDx=0;exitDy=0;" parent="WIyWlLk6GJQsqaUBKTNV-1" source="MhL-LQydLGjMUUDl20l_-82" target="MhL-LQydLGjMUUDl20l_-84" edge="1">
          <mxGeometry relative="1" as="geometry" />
        </mxCell>
        <mxCell id="MhL-LQydLGjMUUDl20l_-88" value="NO" style="edgeLabel;html=1;align=center;verticalAlign=middle;resizable=0;points=[];" parent="MhL-LQydLGjMUUDl20l_-81" vertex="1" connectable="0">
          <mxGeometry x="-0.5444" relative="1" as="geometry">
            <mxPoint as="offset" />
          </mxGeometry>
        </mxCell>
        <mxCell id="MhL-LQydLGjMUUDl20l_-82" value="Enter Valid Data" style="rhombus;whiteSpace=wrap;html=1;strokeWidth=2;" parent="WIyWlLk6GJQsqaUBKTNV-1" vertex="1">
          <mxGeometry x="-460.25" y="110.00000000000001" width="80" height="80" as="geometry" />
        </mxCell>
        <mxCell id="MhL-LQydLGjMUUDl20l_-83" style="edgeStyle=orthogonalEdgeStyle;rounded=0;orthogonalLoop=1;jettySize=auto;html=1;entryX=0;entryY=0.5;entryDx=0;entryDy=0;" parent="WIyWlLk6GJQsqaUBKTNV-1" source="MhL-LQydLGjMUUDl20l_-84" target="MhL-LQydLGjMUUDl20l_-82" edge="1">
          <mxGeometry relative="1" as="geometry" />
        </mxCell>
        <mxCell id="MhL-LQydLGjMUUDl20l_-84" value="error message" style="whiteSpace=wrap;html=1;strokeWidth=2;" parent="WIyWlLk6GJQsqaUBKTNV-1" vertex="1">
          <mxGeometry x="-550" y="80.00000000000001" width="100" height="30" as="geometry" />
        </mxCell>
        <mxCell id="MhL-LQydLGjMUUDl20l_-99" value="" style="edgeStyle=orthogonalEdgeStyle;rounded=0;orthogonalLoop=1;jettySize=auto;html=1;" parent="WIyWlLk6GJQsqaUBKTNV-1" source="MhL-LQydLGjMUUDl20l_-96" target="MhL-LQydLGjMUUDl20l_-98" edge="1">
          <mxGeometry relative="1" as="geometry" />
        </mxCell>
        <mxCell id="MhL-LQydLGjMUUDl20l_-102" value="1 a 6" style="edgeLabel;html=1;align=center;verticalAlign=middle;resizable=0;points=[];" parent="MhL-LQydLGjMUUDl20l_-99" vertex="1" connectable="0">
          <mxGeometry x="0.01" y="2" relative="1" as="geometry">
            <mxPoint as="offset" />
          </mxGeometry>
        </mxCell>
        <mxCell id="MhL-LQydLGjMUUDl20l_-160" style="edgeStyle=orthogonalEdgeStyle;rounded=0;orthogonalLoop=1;jettySize=auto;html=1;entryX=1;entryY=0.5;entryDx=0;entryDy=0;" parent="WIyWlLk6GJQsqaUBKTNV-1" source="MhL-LQydLGjMUUDl20l_-98" target="MhL-LQydLGjMUUDl20l_-96" edge="1">
          <mxGeometry relative="1" as="geometry">
            <Array as="points">
              <mxPoint x="750" y="-70" />
              <mxPoint x="750" y="150" />
            </Array>
          </mxGeometry>
        </mxCell>
        <mxCell id="MhL-LQydLGjMUUDl20l_-98" value="Devolve Nome e preço" style="whiteSpace=wrap;html=1;" parent="WIyWlLk6GJQsqaUBKTNV-1" vertex="1">
          <mxGeometry x="595" y="-100" width="120" height="60" as="geometry" />
        </mxCell>
        <mxCell id="MhL-LQydLGjMUUDl20l_-104" style="edgeStyle=orthogonalEdgeStyle;rounded=0;orthogonalLoop=1;jettySize=auto;html=1;exitX=0.5;exitY=1;exitDx=0;exitDy=0;" parent="WIyWlLk6GJQsqaUBKTNV-1" source="MhL-LQydLGjMUUDl20l_-96" target="MhL-LQydLGjMUUDl20l_-103" edge="1">
          <mxGeometry relative="1" as="geometry" />
        </mxCell>
        <mxCell id="MhL-LQydLGjMUUDl20l_-105" value="Avança Compra" style="edgeLabel;html=1;align=center;verticalAlign=middle;resizable=0;points=[];" parent="MhL-LQydLGjMUUDl20l_-104" vertex="1" connectable="0">
          <mxGeometry x="-0.128" y="2" relative="1" as="geometry">
            <mxPoint as="offset" />
          </mxGeometry>
        </mxCell>
        <mxCell id="MhL-LQydLGjMUUDl20l_-96" value="[1 a 6] Consulta Preço&lt;div&gt;[7] Avança Compra&lt;/div&gt;" style="rhombus;whiteSpace=wrap;html=1;" parent="WIyWlLk6GJQsqaUBKTNV-1" vertex="1">
          <mxGeometry x="580" y="80" width="150" height="140" as="geometry" />
        </mxCell>
        <mxCell id="MhL-LQydLGjMUUDl20l_-108" style="edgeStyle=orthogonalEdgeStyle;rounded=0;orthogonalLoop=1;jettySize=auto;html=1;entryX=0.5;entryY=0;entryDx=0;entryDy=0;exitX=0.5;exitY=1;exitDx=0;exitDy=0;" parent="WIyWlLk6GJQsqaUBKTNV-1" source="MhL-LQydLGjMUUDl20l_-117" target="MhL-LQydLGjMUUDl20l_-107" edge="1">
          <mxGeometry relative="1" as="geometry" />
        </mxCell>
        <mxCell id="MhL-LQydLGjMUUDl20l_-109" value="Cancelar" style="edgeLabel;html=1;align=center;verticalAlign=middle;resizable=0;points=[];fontColor=#3333FF;" parent="MhL-LQydLGjMUUDl20l_-108" vertex="1" connectable="0">
          <mxGeometry x="-0.0177" y="1" relative="1" as="geometry">
            <mxPoint y="-291" as="offset" />
          </mxGeometry>
        </mxCell>
        <mxCell id="MhL-LQydLGjMUUDl20l_-119" style="edgeStyle=orthogonalEdgeStyle;rounded=0;orthogonalLoop=1;jettySize=auto;html=1;entryX=0.5;entryY=0;entryDx=0;entryDy=0;" parent="WIyWlLk6GJQsqaUBKTNV-1" source="MhL-LQydLGjMUUDl20l_-103" target="MhL-LQydLGjMUUDl20l_-117" edge="1">
          <mxGeometry relative="1" as="geometry" />
        </mxCell>
        <mxCell id="MhL-LQydLGjMUUDl20l_-103" value="&lt;font color=&quot;#3333ff&quot;&gt;[] Intro Valores&lt;/font&gt;&lt;div&gt;&lt;font color=&quot;#3333ff&quot;&gt;[0] Cancelar&lt;/font&gt;&lt;/div&gt;&lt;div&gt;&lt;font color=&quot;#3333ff&quot;&gt;[7] Avançar Compra&lt;br&gt;&lt;/font&gt;&lt;div&gt;&lt;br&gt;&lt;/div&gt;&lt;/div&gt;" style="rhombus;whiteSpace=wrap;html=1;" parent="WIyWlLk6GJQsqaUBKTNV-1" vertex="1">
          <mxGeometry x="580" y="370" width="150" height="140" as="geometry" />
        </mxCell>
        <mxCell id="MhL-LQydLGjMUUDl20l_-110" style="edgeStyle=orthogonalEdgeStyle;rounded=0;orthogonalLoop=1;jettySize=auto;html=1;entryX=0.5;entryY=1;entryDx=0;entryDy=0;" parent="WIyWlLk6GJQsqaUBKTNV-1" source="MhL-LQydLGjMUUDl20l_-107" target="MhL-LQydLGjMUUDl20l_-9" edge="1">
          <mxGeometry relative="1" as="geometry" />
        </mxCell>
        <mxCell id="MhL-LQydLGjMUUDl20l_-107" value="&lt;div style=&quot;font-size: 16px;&quot;&gt;&lt;font style=&quot;font-size: 16px;&quot;&gt;Relatório Final&lt;/font&gt;&lt;/div&gt;&lt;font style=&quot;font-size: 16px;&quot;&gt;Cálculo Troco&lt;/font&gt;" style="rounded=1;whiteSpace=wrap;html=1;absoluteArcSize=1;arcSize=14;strokeWidth=2;" parent="WIyWlLk6GJQsqaUBKTNV-1" vertex="1">
          <mxGeometry x="570" y="970" width="170" height="90" as="geometry" />
        </mxCell>
        <mxCell id="MhL-LQydLGjMUUDl20l_-118" style="edgeStyle=orthogonalEdgeStyle;rounded=0;orthogonalLoop=1;jettySize=auto;html=1;entryX=0;entryY=0.5;entryDx=0;entryDy=0;exitX=0.5;exitY=0;exitDx=0;exitDy=0;" parent="WIyWlLk6GJQsqaUBKTNV-1" source="MhL-LQydLGjMUUDl20l_-116" target="MhL-LQydLGjMUUDl20l_-103" edge="1">
          <mxGeometry relative="1" as="geometry" />
        </mxCell>
        <mxCell id="MhL-LQydLGjMUUDl20l_-116" value="error message" style="whiteSpace=wrap;html=1;strokeWidth=2;" parent="WIyWlLk6GJQsqaUBKTNV-1" vertex="1">
          <mxGeometry x="495" y="510" width="100" height="30" as="geometry" />
        </mxCell>
        <mxCell id="MhL-LQydLGjMUUDl20l_-120" style="edgeStyle=orthogonalEdgeStyle;rounded=0;orthogonalLoop=1;jettySize=auto;html=1;entryX=0.5;entryY=1;entryDx=0;entryDy=0;" parent="WIyWlLk6GJQsqaUBKTNV-1" source="MhL-LQydLGjMUUDl20l_-117" target="MhL-LQydLGjMUUDl20l_-116" edge="1">
          <mxGeometry relative="1" as="geometry" />
        </mxCell>
        <mxCell id="MhL-LQydLGjMUUDl20l_-125" value="No" style="edgeLabel;html=1;align=center;verticalAlign=middle;resizable=0;points=[];" parent="MhL-LQydLGjMUUDl20l_-120" vertex="1" connectable="0">
          <mxGeometry x="-0.2833" y="-1" relative="1" as="geometry">
            <mxPoint x="-1" as="offset" />
          </mxGeometry>
        </mxCell>
        <mxCell id="MhL-LQydLGjMUUDl20l_-122" value="" style="edgeStyle=orthogonalEdgeStyle;rounded=0;orthogonalLoop=1;jettySize=auto;html=1;" parent="WIyWlLk6GJQsqaUBKTNV-1" source="MhL-LQydLGjMUUDl20l_-117" target="MhL-LQydLGjMUUDl20l_-121" edge="1">
          <mxGeometry relative="1" as="geometry" />
        </mxCell>
        <mxCell id="MhL-LQydLGjMUUDl20l_-124" value="intro valor" style="edgeLabel;html=1;align=center;verticalAlign=middle;resizable=0;points=[];fontColor=#3333FF;" parent="MhL-LQydLGjMUUDl20l_-122" vertex="1" connectable="0">
          <mxGeometry x="0.1101" relative="1" as="geometry">
            <mxPoint x="16" y="-30" as="offset" />
          </mxGeometry>
        </mxCell>
        <mxCell id="MhL-LQydLGjMUUDl20l_-127" style="edgeStyle=orthogonalEdgeStyle;rounded=0;orthogonalLoop=1;jettySize=auto;html=1;" parent="WIyWlLk6GJQsqaUBKTNV-1" source="MhL-LQydLGjMUUDl20l_-117" target="MhL-LQydLGjMUUDl20l_-126" edge="1">
          <mxGeometry relative="1" as="geometry" />
        </mxCell>
        <mxCell id="MhL-LQydLGjMUUDl20l_-128" value="Avançar Compra" style="edgeLabel;html=1;align=center;verticalAlign=middle;resizable=0;points=[];fontColor=#3333FF;" parent="MhL-LQydLGjMUUDl20l_-127" vertex="1" connectable="0">
          <mxGeometry x="0.2415" y="-1" relative="1" as="geometry">
            <mxPoint x="14" y="-1" as="offset" />
          </mxGeometry>
        </mxCell>
        <mxCell id="MhL-LQydLGjMUUDl20l_-117" value="&lt;div&gt;&lt;div&gt;Valid Imput&lt;/div&gt;&lt;/div&gt;" style="rhombus;whiteSpace=wrap;html=1;" parent="WIyWlLk6GJQsqaUBKTNV-1" vertex="1">
          <mxGeometry x="605" y="550" width="100" height="100" as="geometry" />
        </mxCell>
        <mxCell id="MhL-LQydLGjMUUDl20l_-123" style="edgeStyle=orthogonalEdgeStyle;rounded=0;orthogonalLoop=1;jettySize=auto;html=1;entryX=1;entryY=0.5;entryDx=0;entryDy=0;exitX=0.5;exitY=0;exitDx=0;exitDy=0;" parent="WIyWlLk6GJQsqaUBKTNV-1" source="MhL-LQydLGjMUUDl20l_-121" target="MhL-LQydLGjMUUDl20l_-103" edge="1">
          <mxGeometry relative="1" as="geometry" />
        </mxCell>
        <mxCell id="MhL-LQydLGjMUUDl20l_-121" value="Calculo Saldo" style="whiteSpace=wrap;html=1;" parent="WIyWlLk6GJQsqaUBKTNV-1" vertex="1">
          <mxGeometry x="760" y="480" width="115" height="60" as="geometry" />
        </mxCell>
        <mxCell id="MhL-LQydLGjMUUDl20l_-129" style="edgeStyle=orthogonalEdgeStyle;rounded=0;orthogonalLoop=1;jettySize=auto;html=1;entryX=1;entryY=0.5;entryDx=0;entryDy=0;exitX=0.5;exitY=1;exitDx=0;exitDy=0;" parent="WIyWlLk6GJQsqaUBKTNV-1" source="MhL-LQydLGjMUUDl20l_-136" target="MhL-LQydLGjMUUDl20l_-107" edge="1">
          <mxGeometry relative="1" as="geometry">
            <Array as="points">
              <mxPoint x="1233" y="1015" />
            </Array>
          </mxGeometry>
        </mxCell>
        <mxCell id="MhL-LQydLGjMUUDl20l_-130" value="Terminar e troco" style="edgeLabel;html=1;align=center;verticalAlign=middle;resizable=0;points=[];fontColor=#FF0000;" parent="MhL-LQydLGjMUUDl20l_-129" vertex="1" connectable="0">
          <mxGeometry x="-0.8565" y="3" relative="1" as="geometry">
            <mxPoint y="66" as="offset" />
          </mxGeometry>
        </mxCell>
        <mxCell id="MhL-LQydLGjMUUDl20l_-137" style="edgeStyle=orthogonalEdgeStyle;rounded=0;orthogonalLoop=1;jettySize=auto;html=1;" parent="WIyWlLk6GJQsqaUBKTNV-1" source="MhL-LQydLGjMUUDl20l_-126" target="MhL-LQydLGjMUUDl20l_-136" edge="1">
          <mxGeometry relative="1" as="geometry" />
        </mxCell>
        <mxCell id="MhL-LQydLGjMUUDl20l_-126" value="&lt;div&gt;&lt;div&gt;&lt;font color=&quot;#ff0000&quot;&gt;[] Escolher produto&lt;/font&gt;&lt;/div&gt;&lt;/div&gt;&lt;div&gt;&lt;font color=&quot;#ff0000&quot;&gt;[7] mais saldo&lt;/font&gt;&lt;/div&gt;&lt;div&gt;&lt;font color=&quot;#ff0000&quot;&gt;[8] Terminar e troco&lt;/font&gt;&lt;/div&gt;" style="rhombus;whiteSpace=wrap;html=1;" parent="WIyWlLk6GJQsqaUBKTNV-1" vertex="1">
          <mxGeometry x="1000" y="530" width="150" height="140" as="geometry" />
        </mxCell>
        <mxCell id="MhL-LQydLGjMUUDl20l_-138" style="edgeStyle=orthogonalEdgeStyle;rounded=0;orthogonalLoop=1;jettySize=auto;html=1;exitX=0.5;exitY=1;exitDx=0;exitDy=0;entryX=0.5;entryY=1;entryDx=0;entryDy=0;" parent="WIyWlLk6GJQsqaUBKTNV-1" source="MhL-LQydLGjMUUDl20l_-136" target="MhL-LQydLGjMUUDl20l_-126" edge="1">
          <mxGeometry relative="1" as="geometry" />
        </mxCell>
        <mxCell id="MhL-LQydLGjMUUDl20l_-139" value="NO" style="edgeLabel;html=1;align=center;verticalAlign=middle;resizable=0;points=[];" parent="MhL-LQydLGjMUUDl20l_-138" vertex="1" connectable="0">
          <mxGeometry x="0.3595" y="3" relative="1" as="geometry">
            <mxPoint x="35" y="-2" as="offset" />
          </mxGeometry>
        </mxCell>
        <mxCell id="MhL-LQydLGjMUUDl20l_-145" value="" style="edgeStyle=orthogonalEdgeStyle;rounded=0;orthogonalLoop=1;jettySize=auto;html=1;" parent="WIyWlLk6GJQsqaUBKTNV-1" source="MhL-LQydLGjMUUDl20l_-136" target="MhL-LQydLGjMUUDl20l_-144" edge="1">
          <mxGeometry relative="1" as="geometry" />
        </mxCell>
        <mxCell id="MhL-LQydLGjMUUDl20l_-146" value="escolha produto" style="edgeLabel;html=1;align=center;verticalAlign=middle;resizable=0;points=[];fontColor=#FF0000;" parent="MhL-LQydLGjMUUDl20l_-145" vertex="1" connectable="0">
          <mxGeometry x="-0.0629" y="1" relative="1" as="geometry">
            <mxPoint as="offset" />
          </mxGeometry>
        </mxCell>
        <mxCell id="MhL-LQydLGjMUUDl20l_-136" value="&lt;font color=&quot;#ff0000&quot;&gt;Valid Imput&lt;/font&gt;" style="rhombus;whiteSpace=wrap;html=1;" parent="WIyWlLk6GJQsqaUBKTNV-1" vertex="1">
          <mxGeometry x="1190" y="555" width="85" height="90" as="geometry" />
        </mxCell>
        <mxCell id="MhL-LQydLGjMUUDl20l_-149" style="edgeStyle=orthogonalEdgeStyle;rounded=0;orthogonalLoop=1;jettySize=auto;html=1;entryX=0.5;entryY=0;entryDx=0;entryDy=0;" parent="WIyWlLk6GJQsqaUBKTNV-1" source="MhL-LQydLGjMUUDl20l_-144" target="MhL-LQydLGjMUUDl20l_-103" edge="1">
          <mxGeometry relative="1" as="geometry">
            <Array as="points">
              <mxPoint x="1442" y="320" />
              <mxPoint x="655" y="320" />
            </Array>
          </mxGeometry>
        </mxCell>
        <mxCell id="MhL-LQydLGjMUUDl20l_-150" value="NÂO" style="edgeLabel;html=1;align=center;verticalAlign=middle;resizable=0;points=[];" parent="MhL-LQydLGjMUUDl20l_-149" vertex="1" connectable="0">
          <mxGeometry x="-0.7892" y="4" relative="1" as="geometry">
            <mxPoint as="offset" />
          </mxGeometry>
        </mxCell>
        <mxCell id="MhL-LQydLGjMUUDl20l_-153" style="edgeStyle=orthogonalEdgeStyle;rounded=0;orthogonalLoop=1;jettySize=auto;html=1;entryX=1;entryY=0.5;entryDx=0;entryDy=0;exitX=0.5;exitY=1;exitDx=0;exitDy=0;" parent="WIyWlLk6GJQsqaUBKTNV-1" source="MhL-LQydLGjMUUDl20l_-144" target="MhL-LQydLGjMUUDl20l_-151" edge="1">
          <mxGeometry relative="1" as="geometry" />
        </mxCell>
        <mxCell id="MhL-LQydLGjMUUDl20l_-166" value="SIM" style="edgeLabel;html=1;align=center;verticalAlign=middle;resizable=0;points=[];" parent="MhL-LQydLGjMUUDl20l_-153" vertex="1" connectable="0">
          <mxGeometry x="-0.4386" y="1" relative="1" as="geometry">
            <mxPoint as="offset" />
          </mxGeometry>
        </mxCell>
        <mxCell id="MhL-LQydLGjMUUDl20l_-144" value="&lt;font color=&quot;#ff0000&quot;&gt;Saldo Suficiente&lt;/font&gt;" style="rhombus;whiteSpace=wrap;html=1;" parent="WIyWlLk6GJQsqaUBKTNV-1" vertex="1">
          <mxGeometry x="1400" y="555" width="85" height="90" as="geometry" />
        </mxCell>
        <mxCell id="MhL-LQydLGjMUUDl20l_-152" style="edgeStyle=orthogonalEdgeStyle;rounded=0;orthogonalLoop=1;jettySize=auto;html=1;entryX=0.5;entryY=1;entryDx=0;entryDy=0;" parent="WIyWlLk6GJQsqaUBKTNV-1" source="MhL-LQydLGjMUUDl20l_-151" target="MhL-LQydLGjMUUDl20l_-126" edge="1">
          <mxGeometry relative="1" as="geometry" />
        </mxCell>
        <mxCell id="MhL-LQydLGjMUUDl20l_-151" value="Compra Produto&lt;div&gt;Calculla Saldo&lt;/div&gt;" style="rounded=1;whiteSpace=wrap;html=1;absoluteArcSize=1;arcSize=14;strokeWidth=2;" parent="WIyWlLk6GJQsqaUBKTNV-1" vertex="1">
          <mxGeometry x="1280" y="710" width="110" height="50" as="geometry" />
        </mxCell>
        <mxCell id="MhL-LQydLGjMUUDl20l_-156" value="" style="edgeStyle=orthogonalEdgeStyle;rounded=0;orthogonalLoop=1;jettySize=auto;html=1;entryX=0.5;entryY=0;entryDx=0;entryDy=0;exitX=0.5;exitY=0;exitDx=0;exitDy=0;" parent="WIyWlLk6GJQsqaUBKTNV-1" source="MhL-LQydLGjMUUDl20l_-136" target="MhL-LQydLGjMUUDl20l_-103" edge="1">
          <mxGeometry relative="1" as="geometry">
            <mxPoint x="1233" y="555" as="sourcePoint" />
            <mxPoint x="730" y="440" as="targetPoint" />
            <Array as="points">
              <mxPoint x="1233" y="320" />
              <mxPoint x="655" y="320" />
            </Array>
          </mxGeometry>
        </mxCell>
        <mxCell id="MhL-LQydLGjMUUDl20l_-157" value="Mais Saldo" style="edgeLabel;html=1;align=center;verticalAlign=middle;resizable=0;points=[];fontColor=#FF0000;" parent="MhL-LQydLGjMUUDl20l_-156" vertex="1" connectable="0">
          <mxGeometry x="-0.7679" y="-1" relative="1" as="geometry">
            <mxPoint as="offset" />
          </mxGeometry>
        </mxCell>
        <mxCell id="MhL-LQydLGjMUUDl20l_-161" value="ADMIN" style="text;html=1;align=center;verticalAlign=middle;resizable=0;points=[];autosize=1;strokeColor=none;fillColor=none;fontSize=28;fontStyle=1" parent="WIyWlLk6GJQsqaUBKTNV-1" vertex="1">
          <mxGeometry x="-413" y="-260" width="110" height="50" as="geometry" />
        </mxCell>
        <mxCell id="MhL-LQydLGjMUUDl20l_-162" value="Consulta" style="text;html=1;align=center;verticalAlign=middle;resizable=0;points=[];autosize=1;strokeColor=none;fillColor=none;fontSize=28;fontStyle=1" parent="WIyWlLk6GJQsqaUBKTNV-1" vertex="1">
          <mxGeometry x="570" y="-165.04000000000002" width="130" height="50" as="geometry" />
        </mxCell>
        <mxCell id="MhL-LQydLGjMUUDl20l_-163" value="Valor&lt;div&gt;Insuficiente&lt;/div&gt;" style="text;html=1;align=center;verticalAlign=middle;resizable=0;points=[];autosize=1;strokeColor=none;fillColor=none;fontSize=28;fontStyle=1" parent="WIyWlLk6GJQsqaUBKTNV-1" vertex="1">
          <mxGeometry x="240" y="474.99999999999994" width="170" height="80" as="geometry" />
        </mxCell>
        <mxCell id="MhL-LQydLGjMUUDl20l_-164" value="Compra" style="text;html=1;align=center;verticalAlign=middle;resizable=0;points=[];autosize=1;strokeColor=none;fillColor=none;fontSize=28;fontStyle=1" parent="WIyWlLk6GJQsqaUBKTNV-1" vertex="1">
          <mxGeometry x="1085" y="340" width="120" height="50" as="geometry" />
        </mxCell>
        <mxCell id="MhL-LQydLGjMUUDl20l_-165" value="Intro Saldo" style="text;html=1;align=center;verticalAlign=middle;resizable=0;points=[];autosize=1;strokeColor=none;fillColor=none;fontSize=28;fontStyle=1" parent="WIyWlLk6GJQsqaUBKTNV-1" vertex="1">
          <mxGeometry x="665" y="340" width="160" height="50" as="geometry" />
        </mxCell>
        <mxCell id="RqxgLBqw01Iu66486SGN-3" style="edgeStyle=orthogonalEdgeStyle;rounded=0;orthogonalLoop=1;jettySize=auto;html=1;entryX=0.5;entryY=0;entryDx=0;entryDy=0;" edge="1" parent="WIyWlLk6GJQsqaUBKTNV-1" source="RqxgLBqw01Iu66486SGN-1" target="MhL-LQydLGjMUUDl20l_-9">
          <mxGeometry relative="1" as="geometry" />
        </mxCell>
        <mxCell id="RqxgLBqw01Iu66486SGN-1" value="Carregar Matriz Produtos e Preços" style="rounded=1;whiteSpace=wrap;html=1;absoluteArcSize=1;arcSize=14;strokeWidth=2;" vertex="1" parent="WIyWlLk6GJQsqaUBKTNV-1">
          <mxGeometry x="344" y="-460" width="140" height="50" as="geometry" />
        </mxCell>
        <mxCell id="RqxgLBqw01Iu66486SGN-5" value="Maquina Vending" style="text;html=1;align=center;verticalAlign=middle;resizable=0;points=[];autosize=1;strokeColor=none;fillColor=none;fontSize=28;fontStyle=1" vertex="1" parent="WIyWlLk6GJQsqaUBKTNV-1">
          <mxGeometry x="1066" y="-350" width="240" height="50" as="geometry" />
        </mxCell>
      </root>
    </mxGraphModel>
  </diagram>
</mxfile>
